<svg width="48" height="48" viewBox="0 0 48 48" fill="none" xmlns="http://www.w3.org/2000/svg">
<path fill-rule="evenodd" clip-rule="evenodd" d="M16.6491 9.32618L16.7041 9.08618C16.8091 8.64018 16.9811 7.98418 17.3361 7.33818C17.6981 6.68018 18.2591 6.01318 19.1391 5.57418C20.0161 5.13718 21.1151 4.97418 22.4741 5.15418C23.9741 5.35418 26.9871 5.85018 29.6491 7.20418C32.3261 8.56618 34.8341 10.9092 34.8341 14.8112C34.8341 16.8272 34.0541 18.9902 33.2981 20.4002C32.9351 21.0782 32.5041 21.7262 32.0721 22.0752C31.9731 22.1552 31.8321 22.2552 31.6571 22.3252C31.1771 23.9027 30.2215 25.2935 28.9211 26.3074C27.6206 27.3213 26.0388 27.9088 24.3918 27.9895C22.7448 28.0703 21.113 27.6404 19.7196 26.7586C18.3262 25.8768 17.2392 24.5862 16.6071 23.0632L16.5831 23.0672L16.2281 22.6362L16.2271 22.6342L16.2251 22.6322L16.2201 22.6252L16.2031 22.6052C16.1175 22.4987 16.0352 22.3896 15.9561 22.2782C15.7402 21.9787 15.5367 21.6704 15.3461 21.3542C14.8761 20.5762 14.3091 19.4682 13.9461 18.1752C13.5841 16.8822 13.4181 15.3662 13.7981 13.8022C14.1681 12.2802 15.0411 10.7822 16.6221 9.44418L16.6491 9.32618ZM18.3291 21.9642C18.7628 23.2114 19.5957 24.2808 20.6987 25.0068C21.8017 25.7328 23.1133 26.0749 24.4304 25.98C25.7475 25.8851 26.9965 25.3586 27.9841 24.482C28.9717 23.6055 29.6426 22.4277 29.8931 21.1312L30.0061 21.1692C30.0021 21.1126 30.0001 21.0559 30.0001 20.9992C30.0001 19.3442 29.7701 18.1892 29.5561 17.4692C29.5143 17.329 29.468 17.1903 29.4171 17.0532L29.3761 17.0552H29.3361C28.5883 17.0713 27.8408 17.0144 27.1041 16.8852C25.3871 16.5952 23.0621 15.8712 20.3241 14.1942C20.2641 14.3282 20.2041 14.4792 20.1441 14.6472C19.9481 15.2022 19.7871 15.8612 19.6481 16.5572C19.5251 17.1702 19.4241 17.7872 19.3281 18.3652L19.2911 18.5932C19.1881 19.2132 19.0851 19.8222 18.9651 20.2632C18.7551 21.0292 18.5411 21.5732 18.3291 21.9632V21.9642ZM16.9291 20.1012C16.4774 19.3259 16.1228 18.498 15.8731 17.6362C15.5741 16.5702 15.4641 15.4162 15.7421 14.2752C16.0121 13.1652 16.6651 11.9982 18.0081 10.8922C18.2501 10.7282 18.3601 10.5082 18.3901 10.4492V10.4482C18.4426 10.3401 18.4848 10.2272 18.5161 10.1112C18.5481 9.99718 18.5831 9.84118 18.6161 9.70118L18.6511 9.54418C18.7461 9.14118 18.8691 8.70218 19.0891 8.30118C19.3031 7.91318 19.5961 7.58118 20.0321 7.36418C20.4701 7.14518 21.1481 6.99518 22.2101 7.13718C23.6631 7.33018 26.3961 7.79318 28.7421 8.98718C31.0721 10.1722 32.8341 11.9662 32.8341 14.8112C32.8341 16.1212 32.3941 17.6112 31.8641 18.7862C31.7641 18.0202 31.6201 17.3942 31.4721 16.8982C31.3689 16.5437 31.2403 16.1971 31.0871 15.8612C31.0294 15.7367 30.966 15.6149 30.8971 15.4962L30.8801 15.4692L30.8741 15.4592L30.8711 15.4542L30.8691 15.4512L30.4991 14.8772L29.8371 15.0102L29.8231 15.0132L29.7261 15.0262C29.5773 15.0428 29.4278 15.0528 29.2781 15.0562C28.6616 15.0681 28.0453 15.0199 27.4381 14.9122C25.8251 14.6402 23.4551 13.8992 20.5761 11.9822L19.8761 11.5152L19.2971 12.1252C18.8201 12.6272 18.4961 13.3122 18.2591 13.9792C18.0171 14.6642 17.8341 15.4292 17.6871 16.1632C17.5652 16.7878 17.4546 17.4146 17.3551 18.0432L17.3171 18.2672C17.2101 18.9182 17.1231 19.4152 17.0351 19.7372C17.0023 19.8592 16.9669 19.9806 16.9291 20.1012Z" fill="url(#paint0_linear_207_2500)"/>
<path fill-rule="evenodd" clip-rule="evenodd" d="M17.914 28.8552C17.702 28.4332 17.441 27.9122 17 28.0132C11.596 29.2432 6 32.7942 6 36.5702V42.0002H42V36.5702C42 33.5962 38.528 30.7612 34.413 29.0902L34.408 29.0802C34.4034 29.0712 34.3988 29.0622 34.394 29.0532L34.361 29.0692C33.268 28.6292 32.13 28.2692 31 28.0132C30.497 27.8982 29.977 28.5902 29.75 29.0232H18C17.972 28.9712 17.944 28.9132 17.914 28.8552ZM31.403 30.1752C31.84 30.2962 32.275 30.4322 32.704 30.5822C32.716 30.9242 32.69 31.3282 32.634 31.7402C32.577 32.1668 32.486 32.5881 32.362 33.0002H31C30.8143 33.0003 30.6324 33.0521 30.4745 33.1498C30.3166 33.2474 30.189 33.3871 30.106 33.5532L29.106 35.5532C29.0365 35.692 29.0002 35.845 29 36.0002V38.0002C29 38.2654 29.1054 38.5198 29.2929 38.7073C29.4804 38.8948 29.7348 39.0002 30 39.0002H32V37.0002H31V36.2362L31.618 35.0002H34.382L35 36.2362V37.0002H34V39.0002H36C36.2652 39.0002 36.5196 38.8948 36.7071 38.7073C36.8946 38.5198 37 38.2654 37 38.0002V36.0002C36.9998 35.845 36.9635 35.692 36.894 35.5532L35.894 33.5532C35.811 33.3871 35.6834 33.2474 35.5255 33.1498C35.3676 33.0521 35.1857 33.0003 35 33.0002H34.434C34.5576 32.471 34.6405 31.9331 34.682 31.3912C35.657 31.8522 36.563 32.3812 37.348 32.9532C39.27 34.3552 40 35.6672 40 36.5702V40.0002H8V36.5702C8 35.6672 8.73 34.3552 10.652 32.9532C11.618 32.2482 12.771 31.6102 14.007 31.0822C14.0413 31.8791 14.1692 32.6692 14.388 33.4362L14.396 33.4642C13.7982 33.8424 13.3532 34.4197 13.1397 35.0942C12.9263 35.7686 12.958 36.4968 13.2293 37.1501C13.5007 37.8034 13.9941 38.3399 14.6226 38.6646C15.2511 38.9894 15.9741 39.0816 16.664 38.925C17.3538 38.7684 17.9662 38.3731 18.3928 37.8088C18.8195 37.2445 19.033 36.5476 18.9957 35.8412C18.9584 35.1347 18.6726 34.4642 18.1889 33.948C17.7051 33.4319 17.0545 33.1032 16.352 33.0202C16.2242 32.6018 16.1306 32.1737 16.072 31.7402C16.0163 31.3525 15.9932 30.9608 16.003 30.5692C16.0059 30.4944 16.0109 30.4197 16.018 30.3452C16.138 30.3082 16.258 30.2722 16.378 30.2382L16.793 31.0242H30.957L31.403 30.1762V30.1752ZM16 37.0162C16.538 37.0162 17 36.5762 17 36.0012C17 35.4272 16.538 34.9862 16 34.9862C15.462 34.9862 15 35.4262 15 36.0012C15 36.5752 15.462 37.0162 16 37.0162Z" fill="url(#paint1_linear_207_2500)"/>
<defs>
<linearGradient id="paint0_linear_207_2500" x1="13.5818" y1="6.25727" x2="36.8939" y2="10.4636" gradientUnits="userSpaceOnUse">
<stop stop-color="#0EBE7E"/>
<stop offset="1" stop-color="#07D9AD"/>
</linearGradient>
<linearGradient id="paint1_linear_207_2500" x1="6" y1="28.7184" x2="38.6111" y2="45.0349" gradientUnits="userSpaceOnUse">
<stop stop-color="#0EBE7E"/>
<stop offset="1" stop-color="#07D9AD"/>
</linearGradient>
</defs>
</svg>
