<svg width="28" height="28" viewBox="0 0 28 28" fill="none" xmlns="http://www.w3.org/2000/svg">
<path fill-rule="evenodd" clip-rule="evenodd" d="M8.94258 25.6666H19.0536C23.009 25.6666 25.6654 22.8921 25.6654 18.7637V9.23609C25.6654 5.10772 23.009 2.33325 19.0548 2.33325H8.94258C4.98841 2.33325 2.33203 5.10772 2.33203 9.23609V18.7637C2.33203 22.8921 4.98841 25.6666 8.94258 25.6666ZM9.91338 12.8333C8.30496 12.8333 6.99805 11.5246 6.99805 9.91665C6.99805 8.30866 8.30496 6.99998 9.91338 6.99998C11.5206 6.99998 12.8287 8.30866 12.8287 9.91665C12.8287 11.5246 11.5206 12.8333 9.91338 12.8333ZM23.1224 17.4229C23.5131 18.4247 23.3102 19.6286 22.8925 20.6207C22.3974 21.8006 21.4495 22.694 20.2552 23.0841C19.7249 23.2575 19.1689 23.3333 18.6139 23.3333H8.78159C7.80316 23.3333 6.93736 23.0985 6.22759 22.6615C5.78296 22.387 5.70435 21.7537 6.03401 21.3431C6.58541 20.6568 7.12976 19.9682 7.6788 19.2735C8.72527 17.9443 9.43035 17.559 10.214 17.8973C10.532 18.037 10.8511 18.2465 11.1796 18.468C12.0547 19.0628 13.2713 19.8803 14.8739 18.9929C15.9705 18.3787 16.6066 17.3251 17.1605 16.4077L17.1698 16.3923C17.209 16.3279 17.2479 16.2636 17.2867 16.1994L17.2867 16.1994C17.4729 15.8914 17.6565 15.5875 17.8643 15.3075C18.1247 14.9572 19.0903 13.8615 20.3409 14.6417C21.1374 15.1329 21.8073 15.7975 22.5241 16.5091C22.7975 16.7812 22.9922 17.0906 23.1224 17.4229Z" fill="#9E9E9E"/>
</svg>
