<svg width="19" height="23" viewBox="0 0 19 23" fill="none" xmlns="http://www.w3.org/2000/svg">
<path d="M15.3333 8.625V9.125H15.8333H16.625C17.7045 9.125 18.5 9.9126 18.5 10.7812V20.8438C18.5 21.7124 17.7045 22.5 16.625 22.5H2.375C1.29554 22.5 0.5 21.7124 0.5 20.8438V10.7812C0.5 9.9126 1.29554 9.125 2.375 9.125H3.16667H3.66667V8.625V5.75C3.66667 2.89938 6.23675 0.5 9.5 0.5C12.7632 0.5 15.3333 2.89938 15.3333 5.75V8.625ZM13.7222 9.125H14.2222V8.625V5.75C14.2222 3.31541 12.0581 1.41667 9.5 1.41667C6.94186 1.41667 4.77778 3.31541 4.77778 5.75V8.625V9.125H5.27778H13.7222ZM11.0556 18.2083V16.3059C11.6798 15.8758 12.1111 15.1848 12.1111 14.375C12.1111 12.9975 10.8939 11.9583 9.5 11.9583C8.10614 11.9583 6.88889 12.9974 6.88889 14.375C6.88889 15.1848 7.32017 15.8758 7.94444 16.3059V18.2083C7.94444 19.0575 8.68636 19.6667 9.5 19.6667C10.3136 19.6667 11.0556 19.0575 11.0556 18.2083Z" stroke="#333333"/>
</svg>
