<svg width="24" height="24" viewBox="0 0 24 24" fill="none" xmlns="http://www.w3.org/2000/svg">
<path d="M6 17H10C11.6569 17 13 18.3431 13 20V10C13 7.17157 13 5.75736 12.1213 4.87868C11.2426 4 9.82843 4 7 4H6C5.05719 4 4.58579 4 4.29289 4.29289C4 4.58579 4 5.05719 4 6V15C4 15.9428 4 16.4142 4.29289 16.7071C4.58579 17 5.05719 17 6 17Z" stroke="#222222" stroke-width="1.5"/>
<path d="M20 17H16C14.3431 17 13 18.3431 13 20V10C13 7.17157 13 5.75736 13.8787 4.87868C14.7574 4 16.1716 4 19 4H20C20.9428 4 21.4142 4 21.7071 4.29289C22 4.58579 22 5.05719 22 6V15C22 15.9428 22 16.4142 21.7071 16.7071C21.4142 17 20.9428 17 20 17Z" stroke="#222222" stroke-width="1.5"/>
</svg>
