<svg width="24" height="24" viewBox="0 0 24 24" fill="none" xmlns="http://www.w3.org/2000/svg">
<path d="M6 21V21C4.34315 21 3 19.6568 3 18L3 15.8571C3 15.523 3 15.356 3.07664 15.234C3.1166 15.1704 3.17038 15.1166 3.23399 15.0766C3.35595 15 3.52302 15 3.85714 15L9 15M6 21V21C7.65685 21 9 19.6568 9 18L9 15M6 21L17 21C18.8856 21 19.8284 21 20.4142 20.4142C21 19.8284 21 18.8856 21 17L21 3L18 4L15 3L12 4L9 3L9 15" stroke="#222222" stroke-width="1.5"/>
<path d="M17 17L13 17" stroke="#222222" stroke-linecap="round"/>
<path d="M16 13H17" stroke="#222222" stroke-linecap="round"/>
<path d="M17 9L14 9" stroke="#222222" stroke-linecap="round"/>
</svg>
