<svg width="30" height="34" viewBox="0 0 30 34" fill="none" xmlns="http://www.w3.org/2000/svg">
<path d="M12.3574 16.4221C12.3571 16.4414 12.3568 16.461 12.3563 16.4809L12.3563 16.4811C12.3349 17.4021 12.0973 18.2824 11.8324 18.9646L15.0233 21.8592L18.3111 18.9952C18.0164 18.3229 17.7425 17.4652 17.6826 16.5191C17.35 16.7101 16.8992 16.9216 16.3395 17.058C16.0807 17.1212 15.1266 17.3321 13.9296 17.0598L12.3574 16.4221ZM12.3574 16.4221C13.1122 16.8643 13.7489 17.0187 13.9296 17.0598L12.3574 16.4221Z" stroke="url(#paint0_linear_280_260)"/>
<path fill-rule="evenodd" clip-rule="evenodd" d="M18.0155 3.81768C17.8909 4.02908 17.6762 4.3275 17.3256 4.5531C16.7877 4.8992 16.2387 4.87633 15.7521 4.86441C15.7521 4.86441 14.1365 4.82445 12.3846 4.94918C11.1399 5.03779 10.7002 5.19731 10.3421 5.40163C10.0674 5.55826 9.51303 5.87407 9.23802 6.50473C9.02457 6.99391 9.08488 7.42996 8.98958 7.43799C8.87708 7.44766 8.69456 6.8492 8.63082 6.25013C8.50677 5.08643 8.85553 4.16444 8.96208 3.90241C9.02645 3.74418 9.3527 2.97139 10.1214 2.20537C11.3643 0.966926 12.8615 0.646239 13.903 0.423576C14.774 0.237296 15.3724 0.214764 16.1111 0.197331C16.643 0.18477 17.3024 0.199918 17.9605 0.480289C18.3095 0.629191 18.4946 0.782584 18.623 0.932742C18.7977 1.13672 18.7967 1.25083 19.0095 1.66816C19.1995 2.04068 19.3305 2.29753 19.5617 2.54505C19.8096 2.81027 19.8789 2.75067 20.4174 3.16734C20.744 3.42 20.9327 3.56597 21.1349 3.81799C21.2911 4.0123 21.5333 4.32103 21.6317 4.77965C21.6933 5.06679 21.6636 5.30107 21.6042 5.76967C21.5549 6.15928 21.0502 7.52635 20.9692 7.43834C20.848 7.30622 20.5646 6.42963 19.5615 5.11897C19.2789 4.74965 19.1455 4.5966 19.0371 4.48732C18.9646 4.41416 18.7411 4.19568 18.4115 3.95946C18.3046 3.88242 18.0768 3.71069 18.0155 3.81768Z" fill="url(#paint1_linear_280_260)"/>
<path d="M19.0093 14.7356C19.903 13.6447 20.269 12.3338 20.4293 11.5581C21.874 11.3071 22.8422 8.07222 20.979 7.44156M19.0093 14.7356L18.6226 14.4187M19.0093 14.7356L18.6225 14.4187C18.6225 14.4187 18.6226 14.4187 18.6226 14.4187M19.0093 14.7356C18.509 15.346 18.0258 15.6963 17.9052 15.782M18.6226 14.4187C19.4401 13.4208 19.7852 12.204 19.9396 11.4569L20.0085 11.1237L20.3437 11.0655C20.5366 11.032 20.7681 10.8852 20.9886 10.5951C21.2046 10.3109 21.3739 9.93348 21.4549 9.54108C21.5365 9.14624 21.5209 8.77546 21.4142 8.49131C21.3162 8.23026 21.1395 8.03081 20.8417 7.9232M18.6226 14.4187C18.1618 14.9808 17.7182 15.3015 17.6157 15.3743M20.8417 7.9232C20.9038 7.94012 20.965 7.94432 21.0193 7.93993L20.979 7.44156M20.8417 7.9232C20.8341 7.92046 20.8264 7.91778 20.8187 7.91516L20.979 7.44156M20.8417 7.9232C20.7618 7.90144 20.6804 7.85867 20.6101 7.78609L20.601 7.77671L20.6011 7.77659C20.5401 7.71028 20.4972 7.63295 20.4757 7.59336C20.4484 7.54325 20.4189 7.48371 20.3896 7.42391C20.3813 7.40689 20.3727 7.38929 20.3639 7.37112C20.308 7.25663 20.2409 7.11895 20.1536 6.95402C19.9529 6.57476 19.6459 6.05211 19.1641 5.42252L19.1641 5.42243C18.8854 5.05813 18.7674 4.92536 18.6819 4.83918L18.6817 4.83893C18.6268 4.78356 18.4561 4.61611 18.202 4.42567M20.979 7.44156C20.9752 7.44186 20.9718 7.44091 20.969 7.43801M20.969 7.43801L18.4464 4.07136C18.3861 4.1738 18.306 4.29672 18.202 4.42567M20.969 7.43801C20.9345 7.40051 20.8869 7.303 20.8136 7.1526C20.6286 6.77315 20.2793 6.05706 19.5612 5.11865C19.2787 4.74932 19.1453 4.59627 19.0368 4.48699L20.969 7.43801ZM18.202 4.42567C18.0532 4.61003 17.8554 4.80673 17.5962 4.97353M18.202 4.42567L17.5962 4.97353M17.5962 4.97353C16.9394 5.39621 16.2659 5.37805 15.7982 5.36544C15.7783 5.3649 15.7587 5.36437 15.7396 5.36389L15.739 5.36387L15.7359 5.3638L15.7229 5.36351L15.6704 5.36249C15.624 5.36166 15.5553 5.36061 15.4673 5.35972C15.2912 5.35795 15.0377 5.35687 14.7298 5.35963C14.1134 5.36518 13.2825 5.38615 12.4201 5.44755L12.4201 5.44755C11.2098 5.53372 10.8552 5.68421 10.5899 5.83556L10.5898 5.83561C10.3132 5.99336 9.89882 6.23997 9.69638 6.70422L9.69633 6.70432C9.61772 6.88448 9.58678 7.06071 9.56502 7.21936C9.56344 7.23088 9.56173 7.2439 9.55988 7.25795C9.55166 7.3205 9.54074 7.4036 9.52673 7.46628C9.51835 7.50375 9.49893 7.58435 9.45157 7.66604C9.42204 7.71698 9.36695 7.79117 9.2808 7.84919C8.66342 8.43188 8.55067 9.14102 8.72393 9.76154C8.90853 10.4227 9.40791 10.9509 9.96112 11.1165L10.2713 11.2093L10.3135 11.5304C10.3494 11.8037 10.4441 12.3313 10.5936 12.7602L10.5937 12.7602C11.0609 14.1003 11.9291 14.8688 12.1555 15.0605C13.0632 15.827 13.9752 16.0462 14.1516 16.0863L14.1518 16.0863C15.1326 16.3095 15.9123 16.1345 16.103 16.0881L16.1031 16.088C16.8556 15.9046 17.3638 15.5529 17.6157 15.3743M17.5962 4.97353L17.6157 15.3743M17.6157 15.3743C17.6158 15.3743 17.6159 15.3742 17.616 15.3741L17.9052 15.782M17.6157 15.3743C17.6156 15.3744 17.6156 15.3744 17.6156 15.3744L17.9052 15.782M17.6157 15.3743L14.0409 16.5738C15.1299 16.8217 15.9968 16.6286 16.2215 16.5738C17.0677 16.3676 17.6383 15.9712 17.9052 15.782M17.9708 4.26595C17.9674 4.26461 17.9656 4.26374 17.9656 4.26363C17.9655 4.26353 17.9672 4.2642 17.9708 4.26595Z" stroke="url(#paint2_linear_280_260)"/>
<mask id="path-4-outside-1_280_260" maskUnits="userSpaceOnUse" x="0.916016" y="16.7832" width="29" height="18" fill="black">
<rect fill="white" x="0.916016" y="16.7832" width="29" height="18"/>
<path fill-rule="evenodd" clip-rule="evenodd" d="M15.0987 32.8943H28.3475C28.3509 31.7922 28.3415 26.4468 27.3537 23.1642C27.1112 22.3579 26.8303 21.7456 26.4706 21.1842C26.2684 20.869 25.3838 19.5448 23.6553 18.6386C22.0491 17.7966 19.9032 17.7595 19.1885 17.7901L15.0788 22.063L11.0754 17.7901C10.361 17.7595 8.21473 17.7965 6.6085 18.6386C4.88007 19.5448 3.99505 20.8693 3.7932 21.1842C3.43318 21.7452 3.15256 22.3579 2.91006 23.1642C1.92255 26.4465 1.91288 31.7919 1.91631 32.8943H15.165"/>
</mask>
<path d="M28.3475 32.8943V33.8943H29.3444L29.3475 32.8974L28.3475 32.8943ZM27.3537 23.1642L26.3961 23.4522L26.3962 23.4523L27.3537 23.1642ZM26.4706 21.1842L27.3126 20.6447L27.3123 20.6442L26.4706 21.1842ZM23.6553 18.6386L24.1197 17.753L24.1196 17.7529L23.6553 18.6386ZM19.1885 17.7901L19.1457 16.791L18.7454 16.8081L18.4677 17.0969L19.1885 17.7901ZM15.0788 22.063L14.349 22.7467L15.0693 23.5154L15.7995 22.7562L15.0788 22.063ZM11.0754 17.7901L11.8051 17.1064L11.526 16.8085L11.1182 16.791L11.0754 17.7901ZM6.6085 18.6386L6.14417 17.753L6.14416 17.753L6.6085 18.6386ZM3.7932 21.1842L4.63482 21.7243L4.63505 21.7239L3.7932 21.1842ZM2.91006 23.1642L3.86766 23.4523L3.86769 23.4522L2.91006 23.1642ZM1.91631 32.8943L0.916317 32.8974L0.91942 33.8943H1.91631V32.8943ZM15.0987 33.8943H28.3475V31.8943H15.0987V33.8943ZM29.3475 32.8974C29.3492 32.3372 29.3478 30.6988 29.2201 28.7805C29.0936 26.8798 28.8391 24.6299 28.3113 22.876L26.3962 23.4523C26.8562 24.9811 27.1002 27.0452 27.2245 28.9133C27.3477 30.7639 27.3492 32.3493 27.3475 32.8912L29.3475 32.8974ZM28.3114 22.8762C28.0457 21.9929 27.7286 21.2939 27.3126 20.6447L25.6286 21.7237C25.932 22.1972 26.1768 22.7228 26.3961 23.4522L28.3114 22.8762ZM27.3123 20.6442C27.0719 20.2694 26.0724 18.7768 24.1197 17.753L23.191 19.5243C24.6951 20.3129 25.465 21.4686 25.6289 21.7242L27.3123 20.6442ZM24.1196 17.7529C22.2683 16.7824 19.8974 16.7588 19.1457 16.791L19.2313 18.7892C19.9089 18.7602 21.8298 18.8107 23.191 19.5243L24.1196 17.7529ZM18.4677 17.0969L14.358 21.3698L15.7995 22.7562L19.9092 18.4833L18.4677 17.0969ZM15.8085 21.3793L11.8051 17.1064L10.3456 18.4738L14.349 22.7467L15.8085 21.3793ZM11.1182 16.791C10.3668 16.7588 7.99549 16.7824 6.14417 17.753L7.07283 19.5243C8.43397 18.8107 10.3552 18.7602 11.0326 18.7892L11.1182 16.791ZM6.14416 17.753C4.19146 18.7768 3.19165 20.2697 2.95134 20.6445L4.63505 21.7239C4.79846 21.469 5.56868 20.3129 7.07284 19.5243L6.14416 17.753ZM2.95157 20.6441C2.53475 21.2937 2.21792 21.9934 1.95244 22.8762L3.86769 23.4522C4.08719 22.7224 4.33162 22.1968 4.63482 21.7243L2.95157 20.6441ZM1.95247 22.8761C1.42485 24.6298 1.1703 26.8796 1.04379 28.7803C0.916111 30.6986 0.914573 32.337 0.916317 32.8974L2.91631 32.8912C2.91462 32.3492 2.9162 30.7637 3.03937 28.9131C3.16372 27.0449 3.40777 24.9809 3.86766 23.4523L1.95247 22.8761ZM1.91631 33.8943H15.165V31.8943H1.91631V33.8943Z" fill="url(#paint3_linear_280_260)" mask="url(#path-4-outside-1_280_260)"/>
<path fill-rule="evenodd" clip-rule="evenodd" d="M6.7771 26.4844H7.28615V32.8955H6.7771V26.4844Z" fill="url(#paint4_linear_280_260)"/>
<path fill-rule="evenodd" clip-rule="evenodd" d="M23.4119 26.4844H23.9209V32.8955H23.4119V26.4844Z" fill="#9D2221"/>
<path d="M20.5633 5.13475L20.6744 5.85192C20.5527 5.65437 20.4118 5.43928 20.2484 5.20864C20.2709 5.20282 20.2943 5.19693 20.3186 5.19097C20.3991 5.17127 20.4816 5.15273 20.5633 5.13475ZM19.906 5.32425C19.9017 5.32748 19.8991 5.32899 19.8989 5.32893C19.8986 5.32888 19.9008 5.32726 19.906 5.32425Z" stroke="url(#paint5_linear_280_260)"/>
<path fill-rule="evenodd" clip-rule="evenodd" d="M21.6312 4.77965C21.533 4.32107 21.2905 4.01234 21.1343 3.81799C20.9318 3.56597 20.7431 3.42 20.4168 3.16734C19.8784 2.75067 19.8087 2.81027 19.5612 2.54505C19.3299 2.29756 19.199 2.04072 19.009 1.66816C18.7961 1.25084 18.7971 1.13672 18.6224 0.932744C18.494 0.782586 18.309 0.62885 17.9599 0.480291C17.3018 0.19992 16.6424 0.18477 16.1105 0.197331C15.749 0.205704 15.4208 0.215716 15.0784 0.245367V4.85859C15.4959 4.85828 15.7518 4.86471 15.7518 4.86471C16.2384 4.87663 16.7871 4.89985 17.3253 4.5534C17.6759 4.3278 17.8906 4.02939 18.0153 3.81799C18.0765 3.71133 18.3043 3.88307 18.4109 3.95947C18.7406 4.19603 18.964 4.41451 19.0365 4.48732C19.1449 4.59656 19.2784 4.74965 19.5609 5.11897C20.5637 6.42963 20.8471 7.30618 20.9687 7.43834C21.0493 7.52631 21.554 6.15893 21.6037 5.76967C21.6631 5.30108 21.6927 5.0668 21.6312 4.77965Z" fill="url(#paint6_linear_280_260)"/>
<mask id="path-10-inside-2_280_260" fill="white">
<path fill-rule="evenodd" clip-rule="evenodd" d="M15.0787 22.0644L18.9215 19.1276L18.8471 18.9683C18.5156 18.2571 18.1965 17.3074 18.1721 16.2681C18.1646 15.9513 18.189 15.7299 18.2281 15.5298C18.0728 15.6609 17.9562 15.7451 17.9049 15.7815C17.638 15.9709 17.0678 16.3673 16.2212 16.5736C16.0746 16.6094 15.6549 16.7038 15.0784 16.6964L17.9049 16.2681L18.508 18.9683L15.0787 22.0644Z"/>
</mask>
<path d="M15.0787 22.0644L14.4085 21.3221L15.6859 22.8589L15.0787 22.0644ZM18.9215 19.1276L19.5287 19.9221L20.1681 19.4335L19.8275 18.7043L18.9215 19.1276ZM18.8471 18.9683L17.9408 19.3909L17.9411 19.3916L18.8471 18.9683ZM18.1721 16.2681L19.1718 16.2447L19.1718 16.2444L18.1721 16.2681ZM18.2281 15.5298L19.2095 15.7215L19.7543 12.932L17.5829 14.7658L18.2281 15.5298ZM17.9049 15.7815L17.3261 14.966L17.326 14.966L17.9049 15.7815ZM16.2212 16.5736L15.9845 15.602L15.9841 15.6021L16.2212 16.5736ZM15.0784 16.6964L14.9286 15.7077L15.0655 17.6963L15.0784 16.6964ZM17.9049 16.2681L18.8809 16.0501L18.6776 15.1396L17.7551 15.2794L17.9049 16.2681ZM18.508 18.9683L19.1781 19.7106L19.611 19.3197L19.4839 18.7504L18.508 18.9683ZM15.6859 22.8589L19.5287 19.9221L18.3143 18.333L14.4714 21.2698L15.6859 22.8589ZM19.8275 18.7043L19.7531 18.5451L17.9411 19.3916L18.0155 19.5508L19.8275 18.7043ZM19.7535 18.5458C19.4577 17.9114 19.1919 17.101 19.1718 16.2447L17.1724 16.2915C17.201 17.5138 17.5734 18.6028 17.9408 19.3909L19.7535 18.5458ZM19.1718 16.2444C19.166 15.9984 19.1846 15.8492 19.2095 15.7215L17.2466 15.3381C17.1934 15.6106 17.1632 15.9042 17.1724 16.2917L19.1718 16.2444ZM17.5829 14.7658C17.4556 14.8733 17.3629 14.9399 17.3261 14.966L18.4837 16.5969C18.5495 16.5502 18.69 16.4486 18.8733 16.2938L17.5829 14.7658ZM17.326 14.966C17.0898 15.1338 16.6441 15.4413 15.9845 15.602L16.4579 17.5452C17.4914 17.2934 18.1863 16.8081 18.4838 16.5969L17.326 14.966ZM15.9841 15.6021C15.8837 15.6266 15.5535 15.7024 15.0912 15.6965L15.0655 17.6963C15.7564 17.7052 16.2656 17.5921 16.4584 17.5451L15.9841 15.6021ZM15.2282 17.6851L18.0547 17.2568L17.7551 15.2794L14.9286 15.7077L15.2282 17.6851ZM16.929 16.486L17.532 19.1863L19.4839 18.7504L18.8809 16.0501L16.929 16.486ZM17.8378 18.2261L14.4085 21.3221L15.7488 22.8066L19.1781 19.7106L17.8378 18.2261Z" fill="url(#paint7_linear_280_260)" mask="url(#path-10-inside-2_280_260)"/>
<path d="M26.8918 20.9143L26.8918 20.9142C26.6704 20.5692 25.7284 19.1608 23.8878 18.1958L23.8878 18.1958C22.159 17.2895 19.9006 17.2592 19.1674 17.2905L18.9673 17.2991L18.8284 17.4435L14.7187 21.7164L14.5791 21.8616V22.063V32.8943V33.3934L15.0782 33.3943L15.0982 33.3944H15.0991H15.1654H23.4122H23.4213H23.9122H23.9213H28.3478H28.8462L28.8478 32.8959C28.8495 32.3401 28.848 30.7148 28.7214 28.8135C28.5955 26.9209 28.3435 24.7175 27.8329 23.0201C27.5788 22.1755 27.2798 21.5194 26.8918 20.9143Z" stroke="url(#paint8_linear_280_260)"/>
<defs>
<linearGradient id="paint0_linear_280_260" x1="11.2358" y1="15.6987" x2="19.5807" y2="17.4325" gradientUnits="userSpaceOnUse">
<stop stop-color="#0EBE7E"/>
<stop offset="1" stop-color="#07D9AD"/>
</linearGradient>
<linearGradient id="paint1_linear_280_260" x1="8.60449" y1="0.566032" x2="21.7786" y2="5.18519" gradientUnits="userSpaceOnUse">
<stop stop-color="#0EBE7E"/>
<stop offset="1" stop-color="#07D9AD"/>
</linearGradient>
<linearGradient id="paint2_linear_280_260" x1="8.15063" y1="4.44592" x2="23.189" y2="7.58554" gradientUnits="userSpaceOnUse">
<stop stop-color="#0EBE7E"/>
<stop offset="1" stop-color="#07D9AD"/>
</linearGradient>
<linearGradient id="paint3_linear_280_260" x1="1.91602" y1="18.5581" x2="28.7459" y2="27.6893" gradientUnits="userSpaceOnUse">
<stop stop-color="#0EBE7E"/>
<stop offset="1" stop-color="#07D9AD"/>
</linearGradient>
<linearGradient id="paint4_linear_280_260" x1="6.7771" y1="26.8132" x2="7.35353" y2="26.8221" gradientUnits="userSpaceOnUse">
<stop stop-color="#0EBE7E"/>
<stop offset="1" stop-color="#07D9AD"/>
</linearGradient>
<linearGradient id="paint5_linear_280_260" x1="15.0786" y1="4.44592" x2="22.728" y2="5.23255" gradientUnits="userSpaceOnUse">
<stop stop-color="#0EBE7E"/>
<stop offset="1" stop-color="#07D9AD"/>
</linearGradient>
<linearGradient id="paint6_linear_280_260" x1="15.0784" y1="0.566032" x2="22.3127" y2="1.84521" gradientUnits="userSpaceOnUse">
<stop stop-color="#0EBE7E"/>
<stop offset="1" stop-color="#07D9AD"/>
</linearGradient>
<linearGradient id="paint7_linear_280_260" x1="15.0784" y1="15.8649" x2="19.375" y2="16.3566" gradientUnits="userSpaceOnUse">
<stop stop-color="#0EBE7E"/>
<stop offset="1" stop-color="#07D9AD"/>
</linearGradient>
<linearGradient id="paint8_linear_280_260" x1="15.0791" y1="18.5581" x2="29.6818" y2="21.053" gradientUnits="userSpaceOnUse">
<stop stop-color="#0EBE7E"/>
<stop offset="1" stop-color="#07D9AD"/>
</linearGradient>
</defs>
</svg>
