<svg width="22" height="22" viewBox="0 0 22 22" fill="none" xmlns="http://www.w3.org/2000/svg">
<path fill-rule="evenodd" clip-rule="evenodd" d="M12.6001 9.71083C12.5928 10.1455 12.3369 10.5512 11.9048 10.7907V12.8696C11.9048 13.2921 11.5 13.6322 10.9972 13.6322C10.4943 13.6322 10.0895 13.2921 10.0895 12.8696V10.7907C9.65749 10.5512 9.40154 10.1455 9.39428 9.71083C9.39428 8.96651 10.1113 8.36404 10.9972 8.36404C11.883 8.36404 12.6001 8.96651 12.6001 9.71083ZM19.8966 12.5889C19.3357 15.8239 15.0026 18.6776 12.4775 20.0961C11.5771 20.6024 10.4153 20.6024 9.51492 20.0961C6.98984 18.6776 2.65673 15.8239 2.10488 12.6788L1.81262 5.16706C1.79991 4.8254 2.05405 4.52188 2.44434 4.41511C5.24534 3.72876 7.94651 2.79989 10.5133 1.63766C10.811 1.47751 11.1814 1.47751 11.4791 1.63766C14.0459 2.79989 16.7543 3.72876 19.5553 4.41511C19.9384 4.52188 20.1943 4.8254 20.1798 5.16706L19.8966 12.5889ZM20.0983 2.9601C17.4389 2.31188 14.872 1.43029 12.425 0.339746C11.5537 -0.113249 10.4463 -0.113249 9.57499 0.339746C7.12797 1.43029 4.56114 2.31188 1.90173 2.9601C0.739935 3.27125 -0.0333821 4.19402 0.00110859 5.21898L0.298817 12.8101C0.974108 16.6293 5.732 19.8109 8.51849 21.3651C10.0216 22.2116 11.9784 22.2116 13.4815 21.3651C16.2698 19.8109 21.0277 16.6293 21.7084 12.7262L21.9989 5.21898C22.0334 4.19402 21.2619 3.27125 20.0983 2.9601Z" fill="black"/>
</svg>
